<svg xmlns="http://www.w3.org/2000/svg" viewBox="0 0 128 128" fill="none">
  <defs>
    <linearGradient id="bg" x1="0" y1="0" x2="1" y2="1">
      <stop offset="0%" stop-color="#2d4a42"/>
      <stop offset="100%" stop-color="#1a332e"/>
    </linearGradient>
    <linearGradient id="paper" x1="0" y1="0" x2="0" y2="1">
      <stop offset="0%" stop-color="#f8fafc"/>
      <stop offset="100%" stop-color="#e2e8f0"/>
    </linearGradient>
    <linearGradient id="accent" x1="0" y1="0" x2="1" y2="1">
      <stop offset="0%" stop-color="#40916c"/>
      <stop offset="100%" stop-color="#2d6a4f"/>
    </linearGradient>
  </defs>

  <!-- Background rounded square - dark green -->
  <rect width="128" height="128" rx="28" fill="url(#bg)"/>

  <!-- Document page -->
  <rect x="30" y="26" width="68" height="78" rx="5" fill="url(#paper)" stroke="#cbd5e1" stroke-width="1"/>

  <!-- Page fold -->
  <path d="M30 31a5 5 0 0 1 5-5h44v20a5 5 0 0 0 5 5h14v53a5 5 0 0 1-5 5H35a5 5 0 0 1-5-5V31Z" fill="#f1f5f9" stroke="#cbd5e1" stroke-width="1"/>
  <path d="M79 26v15a5 5 0 0 0 5 5h14" fill="none" stroke="#94a3b8" stroke-width="1"/>

  <!-- Text lines on page -->
  <rect x="38" y="38" width="44" height="2" rx="1" fill="#94a3b8" opacity="0.5"/>
  <rect x="38" y="44" width="36" height="2" rx="1" fill="#94a3b8" opacity="0.5"/>

  <!-- Image/figure on page -->
  <rect x="38" y="52" width="52" height="32" rx="3" fill="url(#accent)" opacity="0.12"/>
  <rect x="38" y="52" width="52" height="32" rx="3" stroke="url(#accent)" stroke-width="1.5"/>

  <!-- Image icon inside figure -->
  <circle cx="56" cy="66" r="4" fill="url(#accent)" opacity="0.5"/>
  <path d="M42 79 52 69l7 7 9-9 11 12" fill="none" stroke="url(#accent)" stroke-width="1.5" stroke-linecap="round" stroke-linejoin="round"/>

  <!-- Crop selection overlay -->
  <rect x="44" y="56" width="40" height="24" rx="2" fill="none" stroke="url(#accent)" stroke-width="2" stroke-dasharray="4 3"/>

  <!-- Crop corner handles -->
  <rect x="42" y="54" width="4" height="4" rx="1" fill="url(#accent)"/>
  <rect x="82" y="54" width="4" height="4" rx="1" fill="url(#accent)"/>
  <rect x="42" y="78" width="4" height="4" rx="1" fill="url(#accent)"/>
  <rect x="82" y="78" width="4" height="4" rx="1" fill="url(#accent)"/>

  <!-- Bottom text lines -->
  <rect x="38" y="90" width="52" height="2" rx="1" fill="#94a3b8" opacity="0.5"/>
  <rect x="38" y="96" width="40" height="2" rx="1" fill="#94a3b8" opacity="0.5"/>

  <!-- Extract arrow (bottom-right) -->
  <circle cx="100" cy="100" r="12" fill="url(#accent)"/>
  <path d="M94 100h12m-6-6v12" stroke="white" stroke-width="2" stroke-linecap="round"/>
</svg>
